# xmcd
#
# Track frame offsets:
#	150
#	11636
#	22826
#	34898
#	47231
#	57537
#	70374
#	80972
#	92949
#	104316
#	117713
#	131090
#	145608
#	155188
#	165585
#	178047
#	191165
#	202144
#	214658
#	225469
#	236905
#	249945
#	262947
#	274984
#	288527
#	299823
#	311580
#	323542
#
# Disc length: 4480 seconds
#
# Revision: 0
# Processed by: cddbd v1.5.2PL0 Copyright (c) Steve Scherf et al.
# Submitted via: EZCDAudioConverter 2.2.2.1
#
DISCID=b9117e1c
DTITLE=Jerry Byrd - Early Country and Hawaiian Steel Guitar Classics
DYEAR=1900
DGENRE=Country
TTITLE0=At Sundown [instr.] (1950)
TTITLE1=Bandera Waltz [voc. Rex Allen] (1949)
TTITLE2=Be Mine, Sweetheart, Be Mine (1949)
TTITLE3=Byrd Boogie [instr.] (1949)
TTITLE4=Coconut Grove [instr.] (1951)
TTITLE5=Drowsy Waters [instr.] (1949)
TTITLE6=Elmer's Tune [instr.] (1953)
TTITLE7=Gold Coast March [instr.] (1952)
TTITLE8=Hilo March [instr.] (1949)
TTITLE9=I Regret To Say Aloha (1949)
TTITLE10=Kaimana Hila [voc. Danny Kuaana] (1949)
TTITLE11=Kalana O Hilo Hanakahi [voc. Danny Kuaana] (1949)
TTITLE12=Kohalo March [instr.] (1952)
TTITLE13=Limehouse Blues [instr.] (1952)
TTITLE14=Little Lani Jo [voc. Danny Kuaana] (1949)
TTITLE15=Makalapua [voc. Danny Kuaana] (1949)
TTITLE16=Maui Chimes [instr.] (1949)
TTITLE17=Moonland [instr.] (1949)
TTITLE18=Over The Waves [instr.] (1951)
TTITLE19=Panhandle Rag [instr.] (1949)
TTITLE20=South [instr.] (1950)
TTITLE21=Steel Guitar Rag [instr.] (1949)
TTITLE22=Steelin' Is His Business [voc. Rex Allen] [instr.] (1949)
TTITLE23=Steelin' The Blues [voc. Rex Allen] [instr.] (1949)
TTITLE24=Steelin' The Chimes [instr.] (1949)
TTITLE25=This 'N That [instr.] (1951)
TTITLE26=Three String Swing [instr.] (1950)
TTITLE27=Wabash Wah-Wah Blues [instr.] (1949)
EXTD=
EXTT0=
EXTT1=
EXTT2=
EXTT3=
EXTT4=
EXTT5=
EXTT6=
EXTT7=
EXTT8=
EXTT9=
EXTT10=
EXTT11=
EXTT12=
EXTT13=
EXTT14=
EXTT15=
EXTT16=
EXTT17=
EXTT18=
EXTT19=
EXTT20=
EXTT21=
EXTT22=
EXTT23=
EXTT24=
EXTT25=
EXTT26=
EXTT27=
PLAYORDER=
